<svg xmlns="http://www.w3.org/2000/svg" version="1.1" xmlns:xlink="http://www.w3.org/1999/xlink" xmlns:svgjs="http://svgjs.dev/svgjs" width="2000" height="1500" viewBox="0 0 2000 1500"><rect width="2000" height="1500" fill="#ffffff"></rect><g transform="matrix(0.75,0,0,0.75,249.090909090909,278.98548387096776)">
<svg viewBox="0 0 396 248" data-background-color="#ffffff" preserveAspectRatio="xMidYMid meet" height="32" width="0" xmlns="http://www.w3.org/2000/svg" xmlns:xlink="http://www.w3.org/1999/xlink"><g id="tight-bounds" transform="matrix(1,0,0,1,0.2400000000000091,0.4000000000000057)"><svg viewBox="0 0 395.52 247.2" height="247.2" width="395.52"><g><svg></svg></g><g><svg viewBox="0 0 395.52 247.2" height="247.2" width="395.52"><g transform="matrix(1,0,0,1,75.54432,93.47477695478953)"><svg viewBox="0 0 244.43135999999998 60.25044609042093" height="60.25044609042093" width="244.43135999999998"><g><svg viewBox="0 0 244.43135999999998 60.25044609042093" height="60.25044609042093" width="244.43135999999998"><g><svg viewBox="0 0 244.43135999999998 60.25044609042093" height="60.25044609042093" width="244.43135999999998"><g><svg viewBox="0 0 244.43135999999998 60.25044609042093" height="60.25044609042093" width="244.43135999999998"><g id="textblocktransform"><svg viewBox="0 0 244.43135999999998 60.25044609042093" height="60.25044609042093" width="244.43135999999998" id="textblock"><g><svg viewBox="0 0 244.43135999999998 60.25044609042093" height="60.25044609042093" width="244.43135999999998"><g transform="matrix(1,0,0,1,0,0)"><svg width="244.43135999999998" viewBox="2.48 -34.93 144.31 35.58" height="60.25044609042093" data-palette-color="#ed3b43"><path d="M16.18 0.65L16.18 0.65Q11.95 0.65 8.89-1.41 5.83-3.48 4.15-7.24 2.48-11 2.48-16.07L2.48-16.07Q2.48-21.43 4.25-25.06 6.03-28.7 9.14-30.56 12.25-32.43 16.18-32.43L16.18-32.43Q21.45-32.43 24.58-29.81 27.7-27.2 28.73-23.03L28.73-23.03 23.65-22.05Q22.75-24.83 20.8-26.49 18.85-28.15 16.18-28.15L16.18-28.15Q13.83-28.15 11.88-26.8 9.93-25.45 8.75-22.76 7.58-20.08 7.58-16.07L7.58-16.07Q7.58-12.38 8.55-9.59 9.53-6.8 11.43-5.25 13.33-3.7 16.18-3.7L16.18-3.7Q19.65-3.7 21.65-5.56 23.65-7.43 23.65-10.43L23.65-10.43 28.78-10.43Q28.78-6.93 27.21-4.46 25.65-2 22.83-0.68 20 0.65 16.18 0.65ZM44.57 0.65L44.57 0.65Q41.47 0.65 38.97-0.95 36.47-2.55 35.01-5.4 33.55-8.25 33.55-12L33.55-12Q33.55-15.98 35-18.81 36.45-21.65 38.95-23.18 41.45-24.7 44.57-24.7L44.57-24.7Q47.37-24.7 49.37-23.56 51.37-22.43 52.6-20.51 53.82-18.6 54.29-16.18 54.75-13.75 54.45-11.18L54.45-11.18 37.35-11.18 37.35-13.93 51.2-13.93 50.05-13.18Q50.12-14.53 49.91-15.88 49.7-17.23 49.1-18.36 48.5-19.5 47.41-20.19 46.32-20.88 44.65-20.88L44.65-20.88Q42.55-20.88 41.14-19.83 39.72-18.78 39-17.01 38.27-15.25 38.27-13.15L38.27-13.15 38.27-11.23Q38.27-8.9 38.97-7.1 39.67-5.3 41.06-4.26 42.45-3.23 44.57-3.23L44.57-3.23Q46.65-3.23 48.01-4.2 49.37-5.18 49.7-7.13L49.7-7.13 54.55-7.13Q54.17-4.78 52.82-3.03 51.47-1.28 49.36-0.31 47.25 0.65 44.57 0.65ZM70.7 0.65L70.7 0.65Q67.75 0.65 65.27-0.94 62.8-2.53 61.33-5.39 59.87-8.25 59.87-12.13L59.87-12.13Q59.87-15.98 61.31-18.8 62.75-21.63 65.12-23.16 67.5-24.7 70.4-24.7L70.4-24.7Q73.05-24.7 75.02-23.41 77-22.13 78.08-19.68 79.17-17.23 79.17-13.7L79.17-13.7 77.52-13.7Q77.52-15.88 76.65-17.39 75.77-18.9 74.37-19.68 72.97-20.45 71.37-20.45L71.37-20.45Q69.5-20.45 67.98-19.44 66.47-18.43 65.58-16.56 64.7-14.7 64.7-12.13L64.7-12.13Q64.7-9.53 65.58-7.61 66.47-5.7 67.98-4.67 69.5-3.65 71.34-3.65L71.34-3.65Q72.87-3.65 74.28-4.46 75.7-5.28 76.61-6.8 77.52-8.33 77.52-10.43L77.52-10.43 79.17-10.43Q79.17-6.83 78.03-4.35 76.9-1.88 74.97-0.61 73.05 0.65 70.7 0.65ZM82.3 0L78.34 0 77.52-5.78 77.52-34.18 82.3-34.18 82.3 0ZM96.79 0L92.04 0 92.04-24.13 96.79-24.13 96.79 0ZM96.79-10.75L95.49-10.75Q95.49-15.38 96.46-18.44 97.42-21.5 99.16-23 100.89-24.5 103.24-24.5L103.24-24.5Q103.94-24.5 104.56-24.4 105.17-24.3 105.77-24.13L105.77-24.13 105.59-19.4Q104.92-19.58 104.13-19.71 103.34-19.85 102.69-19.85L102.69-19.85Q100.64-19.85 99.34-18.76 98.04-17.68 97.42-15.64 96.79-13.6 96.79-10.75L96.79-10.75ZM113.52-29.18L113.52-29.18Q112.09-29.18 111.28-29.96 110.47-30.75 110.47-32.1L110.47-32.1Q110.47-33.4 111.28-34.16 112.09-34.93 113.52-34.93L113.52-34.93Q114.92-34.93 115.73-34.16 116.54-33.4 116.54-32.1L116.54-32.1Q116.54-30.75 115.73-29.96 114.92-29.18 113.52-29.18ZM115.89 0L111.14 0 111.14-24.13 115.89-24.13 115.89 0ZM128.34 0L122.51 0 131.74-12 122.51-24.13 128.34-24.13 134.81-15.6 140.99-24.13 146.79-24.13 137.56-12 146.76 0 140.96 0 134.46-8.55 128.34 0Z" opacity="1" transform="matrix(1,0,0,1,0,0)" fill="#ed3b43" class="wordmark-text-0" data-fill-palette-color="primary" id="text-0"></path></svg></g></svg></g></svg></g></svg></g></svg></g></svg></g></svg></g><g><path d="M245.816 0c68.262 0 123.6 55.338 123.6 123.6 0 68.262-55.338 123.6-123.6 123.6-55.286 0-102.094-36.298-117.892-86.363h2.852c15.701 48.541 61.27 83.646 115.04 83.646 66.762 0 120.883-54.121 120.883-120.883 0-66.762-54.121-120.883-120.883-120.883-53.769 0-99.339 35.105-115.04 83.646l-2.852 0c15.798-50.065 62.606-86.363 117.892-86.363z" fill="#ed3b43" stroke="transparent" data-fill-palette-color="tertiary"></path></g></svg></g><defs></defs></svg><rect width="395.52" height="247.2" fill="none" stroke="none" visibility="hidden"></rect></g></svg></g></svg>